Video
ID : 0
Format : MPEG-4 Visual
Format profile : Advanced Simple@L5
Format settings, BVOP : Yes
Format settings, QPel : No
Format settings, GMC : No warppoints
Format settings, Matrix : Default (H.263)
Codec ID : XVID
Codec ID/Hint : XviD
Duration : 1h 42mn
Bit rate : 1 300 Kbps
Width : 720 pixels
Height : 304 pixels
Display aspect ratio : 2.35:1
Frame rate : 23.976 fps
Color space : YUV
Chroma subsampling : 4:2:0
Bit depth : 8 bits
Scan type : Progressive
Bits/(Pixel*Frame) : 0.248
Stream size : 957 MiB (77%)
Writing library : XviD 1.2.1 (UTC 2008-12-04)

Audio
ID : 1
Format : AC-3
Format/Info : Audio Coding 3
Mode extension : CM (complete main)
Codec ID : 2000
Duration : 1h 42mn
Bit rate mode : Constant
Bit rate : 384 Kbps
Channel(s) : 6 channels
Channel positions : Front: L C R, Side: L R, LFE
Sampling rate : 48.0 KHz
Bit depth : 16 bits
Stream size : 283 MiB (23%)
Alignment : Aligned on interleaves
Interleave, duration : 32 ms (0.77 video frame)






A convicted arsonist looks to manipulate a parole officer into a plan to secure his parole by placing his beautiful wife in the lawman's path. 
 
http://www.imdb.com/title/tt1423995







================================== 
http://thepiratebay.org/user/hiest
==================================







Screenshots:
 
http://www.grinshare.com/img/OMTLY9.png
 
http://www.grinshare.com/img/4LVGP8.png
 
http://www.grinshare.com/img/N3W75C.png

